<?xml version="1.0"?>
<svg xmlns:rdf="http://www.w3.org/1999/02/22-rdf-syntax-ns#" xmlns="http://www.w3.org/2000/svg" xmlns:cc="http://creativecommons.org/ns#" xmlns:xlink="http://www.w3.org/1999/xlink" xmlns:dc="http://purl.org/dc/elements/1.1/" xmlns:svg="http://www.w3.org/2000/svg" id="svg2" viewBox="0 0 387.51 387.5" version="1.1">
  <defs id="defs4">
    <linearGradient id="linearGradient4530" x1="290.83" gradientUnits="userSpaceOnUse" y1="755.74" gradientTransform="matrix(.36255 -.36255 .36255 .36255 -66.756 397.74)" x2="429.83" y2="755.74">
      <stop id="stop5697" stop-color="#4d4d4d" offset="0"/>
      <stop id="stop5699" stop-color="#4d4d4d" stop-opacity="0" offset="1"/>
    </linearGradient>
    <linearGradient id="linearGradient4533" x1="268.71" gradientUnits="userSpaceOnUse" y1="648.26" gradientTransform="matrix(.36255 -.36255 .36255 .36255 -19.586 428.5)" x2="406.71" y2="648.26">
      <stop id="stop5655" stop-color="#ccc" offset="0"/>
      <stop id="stop5657" stop-color="#929292" offset="1"/>
    </linearGradient>
    <linearGradient id="linearGradient4538" x1="300.02" gradientUnits="userSpaceOnUse" y1="522.48" gradientTransform="matrix(.38462 -.38462 .36255 .36255 -59.392 524.94)" x2="499.29" y2="478.48">
      <stop id="stop3941" stop-color="#00a02a" offset="0"/>
      <stop id="stop3943" stop-color="#00731e" offset="1"/>
    </linearGradient>
    <linearGradient id="linearGradient4541" x1="323.59" gradientUnits="userSpaceOnUse" y1="495.04" gradientTransform="matrix(.36255 -.36255 .36255 .36255 -19.329 429.27)" x2="411.83" y2="495.04">
      <stop id="stop5647" stop-color="#005600" offset="0"/>
      <stop id="stop5649" stop-color="#005600" stop-opacity="0" offset="1"/>
    </linearGradient>
    <radialGradient id="radialGradient4544" fx="525.34" fy="620.53" gradientUnits="userSpaceOnUse" cy="838.21" cx="524.96" gradientTransform="matrix(.20092 -.20712 .064453 .062536 243.82 725.94)" r="266.68">
      <stop id="stop3848" stop-color="#008100" offset="0"/>
      <stop id="stop3854" stop-color="#005d00" offset=".20624"/>
      <stop id="stop3858" stop-color="#006a00" offset=".8532"/>
      <stop id="stop3850" stop-color="#004300" offset="1"/>
    </radialGradient>
    <radialGradient id="radialGradient4553" fx="331.03" fy="460.45" gradientUnits="userSpaceOnUse" cy="462.68" cx="297.34" gradientTransform="matrix(-.62812 .59341 -3.7081 -3.9249 2060.1 2100.9)" r="50.609">
      <stop id="stop3890" stop-color="#fff" stop-opacity=".41985" offset="0"/>
      <stop id="stop3892" stop-color="#fff" stop-opacity="0" offset="1"/>
    </radialGradient>
    <radialGradient id="radialGradient4558" gradientUnits="userSpaceOnUse" cy="-9.2813" cx="409.92" gradientTransform="matrix(.39046 -.38277 .13959 .14240 -57.331 527.39)" r="67.141">
      <stop id="stop3851" stop-color="#006000" offset="0"/>
      <stop id="stop3866" stop-color="#006000" offset=".53513"/>
      <stop id="stop3864" stop-color="#008000" offset=".56255"/>
      <stop id="stop3857" stop-color="#00a200" offset=".73112"/>
      <stop id="stop3853" stop-color="#060" offset="1"/>
    </radialGradient>
  </defs>
  <g id="layer1" transform="translate(-77.582 -344.94)">
    <path id="rect3052" d="m88.033 395.37c16.05 15.542 32.929 32.385 48.287 48.219-11.515 22.195-13.869 49.319-0.66846 71.23 8.4336 12.527 20.62 21.874 30.828 32.913l181.12 181.12c11.327 11.327 45.998-4.9843 77.45-36.436s47.774-66.134 36.448-77.461c-0.0904-0.0904-0.18988-0.17376-0.28323-0.2606l-203.24-203.23c-7.3128-5.4394-16.7-12.492-26.772-14.604-18.452-4.9373-37.939-1.5943-54.768 7.0244-15.984-15.896-32.223-32.45-48.344-48.57z" fill="#008000"/>
    <path id="path3860" d="m93.426 360.79c-13.442 13.442-19.507 29.166-13.56 35.113 0.0049 0.005 0.01003 0.0101 0.01513 0.0151l-0.01131 0.0113 7.9725 7.9725 0.02263-0.0226c6.0268 5.77 21.633-0.29247 34.995-13.654 13.442-13.442 19.507-29.166 13.56-35.113-0.18584-0.18584-0.37512-0.34909-0.57959-0.5117l-6.7902-6.7903c-0.16254-0.20453-0.32586-0.39373-0.5117-0.57958-5.9472-5.9472-21.671 0.11784-35.113 13.56z" fill="url(#radialGradient4558)"/>
    <path id="rect3817" d="m228.67 604.16 119.55 119.55c0.39168 0.61505 0.84607 1.186 1.3596 1.6995 10.626 10.626 43.603-5.127 73.654-35.179 29.299-29.299 45.005-61.38 35.926-72.816l0.14729-0.14728-121.34-121.34c0.11183 0.14388 0.21719 0.29913 0.31723 0.45318 0.10115 0.15576 0.19405 0.32121 0.28324 0.48718 0.0888 0.16529 0.17222 0.32326 0.24925 0.49851 0.01 0.0219 0.0132 0.0459 0.0227 0.068 0.0686 0.15966 0.13359 0.3195 0.19261 0.48717 0.0644 0.18293 0.12818 0.37418 0.18127 0.56649 0.0525 0.1903 0.0944 0.38982 0.13596 0.58914 0.0435 0.20866 0.0817 0.41609 0.1133 0.63446 0.093 0.64007 0.1436 1.3189 0.13595 2.0394-0.00091 0.0856-0.009 0.1739-0.0113 0.26058-0.004 0.15716-0.0139 0.31512-0.0227 0.47585-0.0136 0.24976-0.032 0.50085-0.0566 0.75909-0.0242 0.25424-0.0559 0.50812-0.0906 0.77042-0.0352 0.26539-0.0674 0.54227-0.1133 0.81574-0.008 0.0489-0.0254 0.0981-0.034 0.14728-0.0393 0.22623-0.0781 0.45955-0.12463 0.69112-0.16906 0.84013-0.39523 1.721-0.65712 2.6285-0.13312 0.46131-0.27392 0.92706-0.43053 1.4049-0.13266 0.40515-0.26987 0.81829-0.4192 1.2349-0.0514 0.14342-0.10525 0.28578-0.15861 0.43053-0.20634 0.55972-0.43313 1.1317-0.66845 1.7108-0.14499 0.35679-0.28602 0.71244-0.44186 1.0763-0.0629 0.14677-0.128 0.29396-0.19261 0.44186-0.22015 0.50397-0.45078 1.0127-0.69111 1.5295-0.0198 0.0424-0.0368 0.0821-0.0567 0.1246-0.0243 0.052-0.0434 0.10645-0.068 0.15862-0.31296 0.66588-0.65148 1.3309-0.99702 2.0167-0.31252 0.62028-0.63565 1.245-0.97435 1.8807-0.0666 0.12513-0.12497 0.24817-0.19261 0.37388-0.13625 0.25318-0.27889 0.50359-0.41919 0.75909-0.2818 0.51341-0.56308 1.0184-0.86106 1.5408-0.11403 0.19991-0.23484 0.39928-0.35122 0.60048-0.33799 0.58442-0.67343 1.1612-1.031 1.7561-0.0451 0.0751-0.0905 0.15137-0.13596 0.22659-0.43914 0.72723-0.89184 1.4562-1.3596 2.198-0.51431 0.81565-1.038 1.638-1.5862 2.4699-0.26814 0.40692-0.53964 0.81305-0.81574 1.2236-0.15754 0.23432-0.31574 0.46697-0.47585 0.70244-0.46726 0.68721-0.94999 1.3769-1.4389 2.0733-0.25314 0.36063-0.50024 0.71336-0.75909 1.0763-0.14679 0.20582-0.29324 0.4166-0.44186 0.62314-0.47341 0.65803-0.94718 1.3177-1.4389 1.9827-0.51585 0.6976-1.0392 1.3914-1.5748 2.096-0.6855 0.90205-1.3902 1.807-2.1073 2.7191-0.71642 0.91127-1.4508 1.8219-2.198 2.7418-0.40965 0.50438-0.82757 1.0116-1.2463 1.5182-0.44604 0.53965-0.89208 1.0782-1.3482 1.6202-0.76346 0.9071-1.5428 1.8294-2.3339 2.7418-1.5277 1.7618-3.109 3.5283-4.7358 5.3023-0.0582 0.0633-0.11166 0.12921-0.16997 0.19259-0.41718 0.45395-0.84549 0.90524-1.2689 1.3596-1.2908 1.3852-2.5955 2.7611-3.9427 4.1467-0.8958 0.92133-1.7994 1.8447-2.7191 2.7644-4.6898 4.6898-9.4144 9.0712-14.071 13.097-0.004 0.003-0.007 0.008-0.0113 0.0113-0.9322 0.80575-1.8493 1.5912-2.7758 2.3679-1.7579 1.4738-3.5045 2.8723-5.2343 4.2373-0.0918 0.0725-0.1802 0.15446-0.27192 0.2266-0.004 0.003-0.007 0.008-0.0113 0.0113-0.90652 0.71283-1.8113 1.4144-2.7078 2.096-0.004 0.003-0.007 0.008-0.0113 0.0113-0.89639 0.6814-1.7888 1.3446-2.6738 1.994-0.004 0.003-0.007 0.008-0.0113 0.0113-0.14136 0.10373-0.27814 0.20302-0.4192 0.3059-1.3579 0.99052-2.696 1.9317-4.022 2.8438-0.26243 0.18053-0.53202 0.36644-0.79308 0.54382-0.009 0.006-0.0138 0.0168-0.0227 0.0227-0.28368 0.19268-0.55638 0.37755-0.83839 0.56649-1.1148 0.7468-2.2216 1.4654-3.3083 2.1526-0.29886 0.18903-0.60979 0.38205-0.90637 0.56648-0.009 0.005-0.0136 0.0172-0.0227 0.0227-0.40015 0.24872-0.79378 0.47351-1.1896 0.71378-0.42421 0.25746-0.84986 0.52276-1.2689 0.77041-0.79922 0.4724-1.5885 0.93479-2.3679 1.3709-0.0103 0.006-0.0235 0.005-0.034 0.0113-1.5667 0.87579-3.0765 1.6776-4.5545 2.4019-0.011 0.005-0.0231 0.006-0.034 0.0113-0.20311 0.0994-0.39917 0.18674-0.60048 0.28324-1.1203 0.53704-2.2241 1.0284-3.2856 1.4729-0.14643 0.0613-0.2966 0.13308-0.44186 0.19261-0.68198 0.27951-1.3501 0.54219-2.0054 0.78175-0.0115 0.004-0.0225 0.007-0.034 0.0113-0.65875 0.24032-1.2958 0.45806-1.926 0.65713-0.007 0.002-0.0155-0.002-0.0226 0-0.6296 0.19853-1.2359 0.38738-1.8355 0.54388-0.007 0.002-0.0154-0.002-0.0226 0-0.29145 0.0759-0.58824 0.14945-0.87238 0.21526-0.0118 0.003-0.0222 0.009-0.034 0.0113-0.1282 0.0295-0.24721 0.0518-0.37388 0.0793-0.16271 0.0353-0.327 0.0701-0.48718 0.10196-0.27541 0.0547-0.55927 0.1028-0.82707 0.14729-0.0118 0.002-0.0222 0.009-0.034 0.0113-0.1779 0.0293-0.3467 0.0432-0.52117 0.068-0.0978 0.0139-0.19789 0.0328-0.29457 0.0453-0.26268 0.0338-0.51589 0.0676-0.77042 0.0906-0.007 0.00087-0.0151-0.00069-0.0226 0-0.25413 0.0227-0.51328 0.0447-0.75909 0.0566-0.008 0.0004-0.0149-0.00036-0.0226 0-0.24126 0.0115-0.48072 0.0103-0.71377 0.0113-0.0115 0.00007-0.0226 0.0113-0.034 0.0113-0.2361 0.00051-0.46361-0.00096-0.69111-0.0113-0.008-0.00033-0.015 0.00036-0.0226 0-0.22701-0.0107-0.4502-0.035-0.66845-0.0566-0.007-0.00094-0.0151 0.00076-0.0226 0-0.21766-0.022-0.42571-0.0576-0.63446-0.0906-0.008-0.001-0.0152 0.001-0.0226 0-0.20827-0.0334-0.41261-0.0688-0.61181-0.11329-0.007-0.001-0.0155 0.002-0.0226 0-0.0853-0.0192-0.16566-0.0467-0.24925-0.068-0.11724-0.0297-0.23733-0.0682-0.35122-0.10197-0.3979-0.11791-0.76559-0.25135-1.1216-0.4192-0.17102-0.0806-0.33741-0.15694-0.49851-0.24925-0.005-0.003-0.007-0.009-0.0113-0.0113-0.32613-0.18688-0.62192-0.39919-0.90638-0.63447-0.008-0.007-0.0144-0.0159-0.0227-0.0227-0.13554-0.11328-0.27075-0.22673-0.39653-0.35122l-0.0113 0.0113z" fill="#050"/>
    <path id="rect4610" d="m136.67 443.75c12.805 14.655 51.805-31.832 39.967-39.71 26.062 3.9725-40.759 69.135-39.967 39.71z" fill="#004f00" fill-opacity=".47556"/>
    <path id="rect3886" d="m94.129 388.37c-0.47309 1.3176-0.8052 1.7174 0.06798 3.3762l10.491 11.125c0.94175 0.2102 1.943-0.5292 3.9434-1.3136 11.32 11.447 27.637 27.683 40.549 40.594l-0.15861 0.1133c-2.7995 20.759-16.145 41.239 6.9791 70.086 73.82 73.685 136.73 136.53 210.53 210.23 4.5097-0.41497 10.785-2.871 15.816-6.0274-73.76-73.76-141.35-141.71-215.1-215.46-20.462-20.766-12.619-42.436-13.029-63.129-7.8406-9.6271-27.39-28.341-39.586-40.538-1.7726 0.96126-3.573 2.9619-5.1456 2.79l-10.082-10.585c-1.8361-1.2178-0.91062-2.9424-1.0197-3.7162z" fill="url(#radialGradient4553)"/>
    <path id="path3822" d="m458.41 616.58a27.209 76.952 45 1 1 -108.83 108.83 27.209 76.952 45 1 1 108.83 -108.83z" fill="url(#radialGradient4544)"/>
    <path id="rect5099" d="m265.92 476.18l26.806 26.806c6.136-8.5423 12.016-17.493 15.458-27.504 1.2299-3.9742 2.4053-8.5066 0.67592-12.513-1.3541-2.6773-4.4423-3.953-7.3433-3.7817-6.2645 0.19708-12.104 2.8854-17.621 5.6334-6.2944 3.2784-12.247 7.1784-17.975 11.359z" fill="url(#linearGradient4541)"/>
    <path id="path3879" d="m337.45 495.34a21.753 76.923 45 1 1 -108.78 108.78 21.753 76.923 45 1 1 108.78 -108.78z" fill="url(#linearGradient4538)"/>
    <path id="path5616" stroke="url(#linearGradient4530)" stroke-width=".51272" fill="url(#linearGradient4533)" d="m307.68 460.85c1.6534 7.0058 0.50091 14.212-2.2539 21.257l17.346 19.512-17.678-8.6179 25.743 36.88-9.568-0.50823 4.0438 11.115-43.819-24.24c-3.3065 3.5393-6.4165 6.7596-9.0377 9.4796l95.614 95.614c3.1823-4.3809 9.6731-11.43 16.352-19.49l-8.883-14.142 16.418 1.2595-5.2812-8.3306 11.645 2.3202c7.2784-11.881 10.569-23.265 1.7236-29.743l-92.366-92.366z"/>
    <path id="path5813" stroke="url(#linearGradient4530)" stroke-width=".51272" fill="none" d="m313.38 467.39-0.0442 0.22097c-0.71075 5.8379-2.5989 11.742-5.2149 17.501l14.65 16.507-17.678-8.6179 25.743 36.88-9.568-0.50823 4.0438 11.115-40.084-22.185c-2.3081 2.484-4.6744 4.9385-7.0269 7.3804l89.493 89.493c4.3961-5.4832 9.3125-11.343 14.098-17.457l-6.2535-10.01 13.015 0.99436c0.56879-0.8071 1.1272-1.6159 1.6794-2.4307l-3.5576-5.6348 6.3861 1.2595c3.8258-6.1406 7.0446-12.472 9.0377-18.937 1.0793-4.5226-0.82043-9.3868-4.773-11.844-28.124-27.769-55.869-55.911-83.947-83.726z"/>
  </g>
  <metadata>
    <rdf:RDF>
      <cc:Work>
        <dc:format>image/svg+xml</dc:format>
        <dc:type rdf:resource="http://purl.org/dc/dcmitype/StillImage"/>
        <cc:license rdf:resource="http://creativecommons.org/licenses/publicdomain/"/>
        <dc:publisher>
          <cc:Agent rdf:about="http://openclipart.org/">
            <dc:title>Openclipart</dc:title>
          </cc:Agent>
        </dc:publisher>
        <dc:title>Old Open Bottle</dc:title>
        <dc:date>2013-07-05T12:52:30</dc:date>
        <dc:description>An older and open version of jarda's good looking bottle</dc:description>
        <dc:source>http://openclipart.org/detail/180024/old-open-bottle-by-qubodup-180024</dc:source>
        <dc:creator>
          <cc:Agent>
            <dc:title>qubodup</dc:title>
          </cc:Agent>
        </dc:creator>
        <dc:subject>
          <rdf:Bag>
            <rdf:li>bottle</rdf:li>
            <rdf:li>clip art</rdf:li>
            <rdf:li>clipart</rdf:li>
            <rdf:li>cork</rdf:li>
            <rdf:li>label</rdf:li>
            <rdf:li>old</rdf:li>
            <rdf:li>open</rdf:li>
            <rdf:li>torn</rdf:li>
            <rdf:li>wine</rdf:li>
          </rdf:Bag>
        </dc:subject>
      </cc:Work>
      <cc:License rdf:about="http://creativecommons.org/licenses/publicdomain/">
        <cc:permits rdf:resource="http://creativecommons.org/ns#Reproduction"/>
        <cc:permits rdf:resource="http://creativecommons.org/ns#Distribution"/>
        <cc:permits rdf:resource="http://creativecommons.org/ns#DerivativeWorks"/>
      </cc:License>
    </rdf:RDF>
  </metadata>
</svg>
